<svg width="77" height="112" viewBox="0 0 77 112" fill="none" xmlns="http://www.w3.org/2000/svg">
<rect x="0.5" y="0.5" width="76" height="78.6783" rx="11.5" fill="white" stroke="#FFF2E5"/>
<rect x="0.5" y="0.5" width="76" height="78.6783" rx="11.5" fill="#FFF2E5" stroke="#FFF2E5"/>
<path d="M56.8426 23.4205H20.5378C19.4679 23.4205 18.4419 23.853 17.6854 24.6228C16.9289 25.3925 16.5039 26.4366 16.5039 27.5252V54.2053C16.5039 55.2939 16.9289 56.338 17.6854 57.1077C18.4419 57.8775 19.4679 58.31 20.5378 58.31H56.8426C57.9124 58.31 58.9385 57.8775 59.695 57.1077C60.4515 56.338 60.8765 55.2939 60.8765 54.2053V27.5252C60.8765 26.4366 60.4515 25.3925 59.695 24.6228C58.9385 23.853 57.9124 23.4205 56.8426 23.4205ZM20.5378 54.2053V27.5252H36.6732V54.2053H20.5378ZM56.8426 54.2053H40.7071V27.5252H56.8426V54.2053ZM42.724 34.7083H54.8256V37.7868H42.724V34.7083ZM42.724 39.8391H54.8256V42.9176H42.724V39.8391ZM42.724 44.9699H54.8256V48.0484H42.724V44.9699Z" fill="#FF7F00"/>
</svg>
