<svg width="77" height="112" viewBox="0 0 77 112" fill="none" xmlns="http://www.w3.org/2000/svg">
<rect x="0.5" y="0.5" width="76" height="78.6783" rx="11.5" fill="white" stroke="#FFF2E5"/>
<rect x="0.5" y="0.5" width="76" height="78.6783" rx="11.5" fill="#FFF2E5" stroke="#FFF2E5"/>
<path d="M41.7155 23.4205C40.9131 23.4205 40.1436 23.7449 39.5762 24.3222C39.0089 24.8995 38.6901 25.6825 38.6901 26.499C38.6901 27.3155 39.0089 28.0985 39.5762 28.6758C40.1436 29.2532 40.9131 29.5775 41.7155 29.5775C42.5179 29.5775 43.2874 29.2532 43.8548 28.6758C44.4222 28.0985 44.7409 27.3155 44.7409 26.499C44.7409 25.6825 44.4222 24.8995 43.8548 24.3222C43.2874 23.7449 42.5179 23.4205 41.7155 23.4205ZM40.9894 33.2101C38.5893 33.4153 32.0342 38.7308 32.0342 38.7308C31.6308 39.0387 31.7519 39.0182 32.0746 39.5928C32.3973 40.1469 32.3569 40.188 32.7402 39.9212C33.1435 39.6544 33.8091 39.2234 34.9184 38.5256C39.1943 35.7344 35.6042 42.1787 33.7688 53.0355C33.0427 58.4126 37.8027 55.6419 39.033 54.821C40.2432 54.0206 43.4904 51.7425 43.8131 51.5168C44.2569 51.2089 43.9341 50.9627 43.5913 50.4496C43.3492 50.1007 43.1072 50.347 43.1072 50.347C41.7962 51.2295 39.396 53.0765 39.0733 51.9067C38.6901 50.7369 41.1508 42.7123 42.5021 37.1916C42.724 35.8781 43.3291 33.0049 40.9894 33.2101Z" fill="#FF7F00"/>
</svg>
