<svg width="77" height="112" viewBox="0 0 77 112" fill="none" xmlns="http://www.w3.org/2000/svg">
<rect x="0.5" y="0.5" width="76" height="78.6783" rx="11.5" fill="white" stroke="#FFF2E5"/>
<rect x="0.5" y="0.5" width="76" height="78.6783" rx="11.5" fill="#FFF2E5" stroke="#FFF2E5"/>
<g clip-path="url(#clip0_2006_441)">
<path d="M38.6901 25.4729C36.8179 25.4729 35.0224 26.2297 33.6985 27.5768C32.3746 28.9239 31.6309 30.7509 31.6309 32.656C31.6309 34.5611 32.3746 36.3882 33.6985 37.7352C35.0224 39.0823 36.8179 39.8391 38.6901 39.8391C40.5624 39.8391 42.3579 39.0823 43.6818 37.7352C45.0057 36.3882 45.7494 34.5611 45.7494 32.656C45.7494 30.7509 45.0057 28.9239 43.6818 27.5768C42.3579 26.2297 40.5624 25.4729 38.6901 25.4729ZM38.6901 29.5775C39.4925 29.5775 40.2621 29.9019 40.8294 30.4792C41.3968 31.0565 41.7155 31.8396 41.7155 32.656C41.7155 33.4725 41.3968 34.2555 40.8294 34.8328C40.2621 35.4102 39.4925 35.7345 38.6901 35.7345C37.8878 35.7345 37.1182 35.4102 36.5509 34.8328C35.9835 34.2555 35.6647 33.4725 35.6647 32.656C35.6647 31.8396 35.9835 31.0565 36.5509 30.4792C37.1182 29.9019 37.8878 29.5775 38.6901 29.5775ZM25.5801 31.6299C24.2428 31.6299 22.9602 32.1704 22.0146 33.1326C21.069 34.0948 20.5377 35.3999 20.5377 36.7607C20.5377 38.6898 21.6067 40.3522 23.1396 41.2347C23.8657 41.6452 24.6926 41.8915 25.5801 41.8915C26.4675 41.8915 27.2945 41.6452 28.0206 41.2347C28.7668 40.8037 29.3921 40.188 29.856 39.4492C28.3836 37.4995 27.597 35.1188 27.597 32.656C27.597 32.4713 27.597 32.2661 27.597 32.0814C26.9919 31.794 26.3062 31.6299 25.5801 31.6299ZM51.8002 31.6299C51.0741 31.6299 50.3884 31.794 49.7833 32.0814C49.7833 32.2661 49.7833 32.4713 49.7833 32.656C49.7833 35.1188 48.9967 37.4995 47.5243 39.4492C47.7663 39.8391 48.0286 40.147 48.3311 40.4548C48.6538 40.7627 48.9765 41.0295 49.3597 41.2347C50.0858 41.6452 50.9128 41.8915 51.8002 41.8915C52.6877 41.8915 53.5146 41.6452 54.2407 41.2347C55.7736 40.3522 56.8426 38.6898 56.8426 36.7607C56.8426 35.3999 56.3113 34.0948 55.3657 33.1326C54.4201 32.1704 53.1375 31.6299 51.8002 31.6299ZM38.6901 43.9438C33.9705 43.9438 24.5716 46.345 24.5716 51.1269V54.2054H52.8087V51.1269C52.8087 46.345 43.4098 43.9438 38.6901 43.9438ZM23.9867 45.0725C20.094 45.5446 14.4869 47.5559 14.4869 51.1269V54.2054H20.5377V50.2444C20.5377 48.1715 21.9294 46.4476 23.9867 45.0725ZM53.3936 45.0725C55.4509 46.4476 56.8426 48.1715 56.8426 50.2444V54.2054H62.8934V51.1269C62.8934 47.5559 57.2863 45.5446 53.3936 45.0725ZM38.6901 48.0484C41.7761 48.0484 45.225 49.0746 47.2218 50.1007H30.1585C32.1553 49.0746 35.6042 48.0484 38.6901 48.0484Z" fill="#FF7F00"/>
</g>
<defs>
<clipPath id="clip0_2006_441">
<rect width="48.4064" height="49.2557" fill="white" transform="translate(14.4869 15.2113)"/>
</clipPath>
</defs>
</svg>
